<svg width="602" height="328" viewBox="0 0 602 328" fill="none" xmlns="http://www.w3.org/2000/svg">
<path d="M273.888 144.52V97.8H279.648V104.52H280.8L279.648 105.864C279.648 103.176 280.523 101.064 282.272 99.528C284.064 97.9493 286.411 97.16 289.312 97.16C292.853 97.16 295.669 98.3333 297.76 100.68C299.893 102.984 300.96 106.163 300.96 110.216V120.52C300.96 123.208 300.469 125.533 299.488 127.496C298.549 129.459 297.205 130.973 295.456 132.04C293.749 133.107 291.701 133.64 289.312 133.64C286.453 133.64 284.128 132.851 282.336 131.272C280.544 129.693 279.648 127.581 279.648 124.936L280.8 126.28H279.52L279.648 134.28V144.52H273.888ZM287.392 128.648C289.824 128.648 291.723 127.923 293.088 126.472C294.496 125.021 295.2 122.931 295.2 120.2V110.6C295.2 107.869 294.496 105.779 293.088 104.328C291.723 102.877 289.824 102.152 287.392 102.152C285.045 102.152 283.168 102.899 281.76 104.392C280.352 105.885 279.648 107.955 279.648 110.6V120.2C279.648 122.845 280.352 124.915 281.76 126.408C283.168 127.901 285.045 128.648 287.392 128.648ZM317.767 144.52L322.951 130.824L309.895 97.8H316.295L324.487 119.56C324.786 120.285 325.063 121.16 325.319 122.184C325.575 123.165 325.788 123.997 325.959 124.68C326.13 123.997 326.343 123.165 326.599 122.184C326.855 121.16 327.111 120.285 327.367 119.56L335.047 97.8H341.255L323.911 144.52H317.767ZM365.625 89.75C364.562 89.7917 363.938 90.0417 363.75 90.5C363.562 90.9375 363.698 91.7292 364.156 92.875L373.781 116.562L377.594 106.312L372.219 92.8125C371.76 91.7083 371.198 90.9479 370.531 90.5312C369.865 90.0938 368.812 89.8333 367.375 89.75C366.854 88.4167 366.854 87.1771 367.375 86.0312H389.438C389.958 87.1771 389.958 88.4167 389.438 89.75C387.188 89.8333 385.719 90.1458 385.031 90.6875C384.344 91.2083 384.177 91.9375 384.531 92.875L393.469 116.375L402.25 92.875C402.667 91.7292 402.521 90.9688 401.812 90.5938C401.125 90.1979 399.729 89.9167 397.625 89.75C397.125 88.4167 397.125 87.1771 397.625 86.0312H416.188C416.708 87.1771 416.708 88.4167 416.188 89.75C413.042 89.9583 411.021 90.2708 410.125 90.6875C409.188 91.1667 408.521 91.8958 408.125 92.875L392.125 135.188H388.938L380.562 113.594L372.406 135.188H369.281L351.812 92.875C351.396 91.8542 350.656 91.1354 349.594 90.7188C348.552 90.2812 346.99 89.9583 344.906 89.75C344.385 88.4167 344.385 87.1771 344.906 86.0312H365.625C366.146 87.1771 366.146 88.4167 365.625 89.75ZM364.562 87.0625H346C345.729 87.4792 345.729 87.9688 346 88.5312C349.75 88.9062 352.073 90.1875 352.969 92.375L370.125 133.906H371.531L380.406 110.094L389.844 133.906H391.25L407.125 91.9688C407.583 90.7812 408.417 89.9583 409.625 89.5C410.854 89.0208 412.594 88.6979 414.844 88.5312C415.115 87.9688 415.115 87.4792 414.844 87.0625H398.969C398.719 87.4792 398.719 87.9688 398.969 88.5312C401.448 88.8229 402.969 89.2083 403.531 89.6875C404.219 90.2292 404.365 90.9896 403.969 91.9688L391.812 124.688L379.469 92.375C378.99 91.25 379.479 90.375 380.938 89.75C382.396 89.1042 384.781 88.6979 388.094 88.5312C388.365 87.9688 388.365 87.4792 388.094 87.0625H368.469C368.198 87.4792 368.198 87.9688 368.469 88.5312C369.781 88.6562 370.812 89 371.562 89.5625C372.312 90.1042 372.938 91.0417 373.438 92.375L378.938 106.312L372.094 124.688L358.969 92.375C358.26 90.9583 358.333 90.0208 359.188 89.5625C360.042 89.0833 361.833 88.7396 364.562 88.5312C364.812 87.9688 364.812 87.4792 364.562 87.0625ZM433.031 106.625C435.177 106.625 436.875 107.656 438.125 109.719C439.396 111.76 440.031 114.938 440.031 119.25C440.031 123.562 439.396 126.74 438.125 128.781C436.875 130.823 435.177 131.844 433.031 131.844C431.844 131.844 430.76 131.594 429.781 131.094C428.823 130.594 428 129.823 427.312 128.781C426.646 127.74 426.125 126.438 425.75 124.875C425.375 123.292 425.188 121.417 425.188 119.25C425.188 117.104 425.375 115.24 425.75 113.656C426.125 112.052 426.646 110.74 427.312 109.719C428 108.677 428.823 107.906 429.781 107.406C430.76 106.885 431.844 106.625 433.031 106.625ZM433.031 133.906C434.969 133.906 436.708 133.542 438.25 132.812C439.792 132.083 441.104 131.073 442.188 129.781C443.292 128.469 444.135 126.917 444.719 125.125C445.302 123.333 445.594 121.375 445.594 119.25C445.594 117.125 445.302 115.167 444.719 113.375C444.135 111.583 443.292 110.042 442.188 108.75C441.104 107.438 439.792 106.417 438.25 105.688C436.708 104.958 434.969 104.594 433.031 104.594C430.969 104.594 429.104 104.958 427.438 105.688C425.771 106.417 424.354 107.427 423.188 108.719C422.042 110.01 421.156 111.562 420.531 113.375C419.906 115.167 419.594 117.125 419.594 119.25C419.594 121.396 419.906 123.365 420.531 125.156C421.156 126.948 422.042 128.5 423.188 129.812C424.354 131.104 425.771 132.115 427.438 132.844C429.104 133.552 430.969 133.906 433.031 133.906ZM434.125 103.312C436.646 103.312 438.885 103.698 440.844 104.469C442.823 105.24 444.49 106.333 445.844 107.75C447.198 109.146 448.229 110.823 448.938 112.781C449.646 114.74 450 116.896 450 119.25C450 121.583 449.646 123.729 448.938 125.688C448.229 127.646 447.198 129.333 445.844 130.75C444.51 132.146 442.854 133.229 440.875 134C438.896 134.792 436.646 135.188 434.125 135.188C431.625 135.188 429.385 134.792 427.406 134C425.448 133.229 423.792 132.146 422.438 130.75C421.104 129.333 420.083 127.656 419.375 125.719C418.667 123.76 418.312 121.604 418.312 119.25C418.312 116.896 418.667 114.74 419.375 112.781C420.083 110.823 421.115 109.146 422.469 107.75C423.823 106.333 425.479 105.24 427.438 104.469C429.396 103.698 431.625 103.312 434.125 103.312ZM429.594 119.25C429.594 125.979 431.104 129.708 434.125 130.438C437.208 129.708 438.75 125.979 438.75 119.25C438.75 112.583 437.208 108.844 434.125 108.031C431.104 108.844 429.594 112.583 429.594 119.25ZM476.406 131.562C476.156 132.042 476.156 132.552 476.406 133.094C481.823 132.969 487.25 132.969 492.688 133.094C492.979 132.594 492.979 132.083 492.688 131.562C487.604 131.312 485.042 130.312 485 128.562L484.688 112.844C484.583 109.99 484.115 107.906 483.281 106.594C482.469 105.26 481.031 104.594 478.969 104.594C475.51 104.594 471.396 106.979 466.625 111.75V105.531C466.458 105.198 466.094 104.927 465.531 104.719C462.635 106.073 459.625 106.927 456.5 107.281C456.375 107.781 456.375 108.271 456.5 108.75C458.896 108.875 460.667 109.302 461.812 110.031C462.042 116.26 462.042 122.438 461.812 128.562C461.771 130.104 459.979 131.104 456.438 131.562C456.188 132.042 456.188 132.552 456.438 133.094C461.854 132.885 467.302 132.885 472.781 133.094C473.031 132.552 473.031 132.042 472.781 131.562C468.885 131.146 466.917 130.146 466.875 128.562C466.708 124.229 466.625 119.292 466.625 113.75C470.812 110.062 474.094 108.219 476.469 108.219C478.74 108.219 479.875 110.104 479.875 113.875L479.812 128.562C479.812 129.583 479.5 130.302 478.875 130.719C478.25 131.115 477.427 131.396 476.406 131.562ZM475.406 134.188C474.885 132.958 474.885 131.698 475.406 130.406C476.073 130.406 476.76 130.229 477.469 129.875C478.177 129.5 478.531 129.062 478.531 128.562L478.594 113.875C478.594 111.604 478.146 110.219 477.25 109.719C475.708 110.094 473.635 111.219 471.031 113.094C471.031 118.823 471.115 123.958 471.281 128.5C471.385 129.604 472.219 130.24 473.781 130.406C474.302 131.698 474.302 132.958 473.781 134.188C467.677 133.979 461.542 133.979 455.375 134.188C454.854 132.958 454.854 131.698 455.375 130.406C458.771 129.948 460.49 129.312 460.531 128.5C460.76 122.625 460.76 116.719 460.531 110.781C459.135 110.365 457.417 110.094 455.375 109.969C454.896 108.719 454.896 107.396 455.375 106C458.521 105.833 462.062 104.896 466 103.188C468.25 103.354 469.927 104.031 471.031 105.219V106.25C473.99 104.292 477.385 103.312 481.219 103.312C484.031 103.312 486.031 104.083 487.219 105.625C488.427 107.146 489.052 109.552 489.094 112.844C489.177 121.115 489.281 126.354 489.406 128.562C489.448 129.417 490.917 130.031 493.812 130.406C494.292 131.781 494.25 133.042 493.688 134.188C487.583 134.062 481.49 134.062 475.406 134.188ZM513.25 129.812C510.771 129.812 508.885 128.812 507.594 126.812C506.323 124.792 505.688 122.25 505.688 119.188C505.688 116.708 505.938 114.583 506.438 112.812C506.958 111.042 507.635 109.74 508.469 108.906C509.302 108.073 510.115 107.49 510.906 107.156C511.698 106.802 512.5 106.625 513.312 106.625C516.25 106.625 518.448 107.865 519.906 110.344V114.875C519.906 120.562 519.885 124.427 519.844 126.469C517.531 128.698 515.333 129.812 513.25 129.812ZM533.656 130.5C534.344 131.875 534.302 133.198 533.531 134.469C528.198 134.302 523.719 134.302 520.094 134.469C519.323 134.135 518.833 133.708 518.625 133.188C516.604 134.521 513.802 135.188 510.219 135.188C506.677 135.188 503.802 133.865 501.594 131.219C499.406 128.573 498.312 124.969 498.312 120.406C498.312 118.385 498.615 116.417 499.219 114.5C499.823 112.583 500.729 110.771 501.938 109.062C503.146 107.354 504.823 105.969 506.969 104.906C509.135 103.844 511.604 103.312 514.375 103.312C516.271 103.312 517.688 103.354 518.625 103.438C518.583 100.146 518.562 96.1979 518.562 91.5938C517.188 91.1562 515.281 90.875 512.844 90.75C512.385 89.5208 512.385 88.1979 512.844 86.7812C515.76 86.5312 519.458 85.5938 523.938 83.9688C526.188 84.1354 527.865 84.8229 528.969 86.0312C528.969 109.802 529.062 124.01 529.25 128.656C529.292 129.552 530.76 130.167 533.656 130.5ZM518.625 110.656C517.583 109.177 516.219 108.302 514.531 108.031C513.073 108.344 511.823 109.354 510.781 111.062C509.74 112.75 509.219 115.458 509.219 119.188C509.219 121.604 509.635 123.656 510.469 125.344C511.323 127.031 512.604 128.052 514.312 128.406C515.688 128.094 517.104 127.281 518.562 125.969C518.604 123.906 518.625 120.208 518.625 114.875V110.656ZM532.5 131.656C531.438 131.573 530.625 131.49 530.062 131.406C529.521 131.323 528.75 131.177 527.75 130.969C526.771 130.74 526.031 130.448 525.531 130.094C525.052 129.719 524.812 129.26 524.812 128.719C524.646 124.073 524.562 109.948 524.562 86.3438C524.354 85.9688 523.99 85.6875 523.469 85.5C520.698 86.8333 517.479 87.6875 513.812 88.0625C513.688 88.5833 513.688 89.0729 513.812 89.5312C516.625 89.6771 518.635 90.1042 519.844 90.8125C519.844 96.7083 519.865 101.635 519.906 105.594C517.76 104.927 515.917 104.594 514.375 104.594C511.917 104.594 509.74 105.083 507.844 106.062C505.969 107.042 504.5 108.333 503.438 109.938C502.375 111.521 501.573 113.198 501.031 114.969C500.51 116.74 500.25 118.552 500.25 120.406C500.25 124.573 501.177 127.865 503.031 130.281C504.885 132.698 507.115 133.906 509.719 133.906C513.01 133.906 516.354 132.219 519.75 128.844C519.75 130.594 519.708 131.719 519.625 132.219C519.854 132.698 520.115 133.021 520.406 133.188C521.094 133.146 521.771 133.104 522.438 133.062C523.125 133.021 523.667 132.99 524.062 132.969C524.479 132.948 524.844 132.938 525.156 132.938C526.302 132.938 528.75 133 532.5 133.125C532.792 132.708 532.792 132.219 532.5 131.656ZM553.344 106.625C555.01 106.625 556.219 107.167 556.969 108.25C557.719 109.312 558.094 110.646 558.094 112.25C558.094 112.854 557.99 113.542 557.781 114.312H545.594C546.24 111.708 547.281 109.781 548.719 108.531C550.177 107.26 551.719 106.625 553.344 106.625ZM545.281 116.438H562.312C562.646 115.396 562.812 114.323 562.812 113.219C562.812 110.781 562.115 108.74 560.719 107.094C559.344 105.427 557.146 104.594 554.125 104.594C550.188 104.594 546.875 106.021 544.188 108.875C541.5 111.729 540.156 115.354 540.156 119.75C540.156 124.438 541.438 127.969 544 130.344C546.562 132.719 549.573 133.906 553.031 133.906C555.594 133.906 557.969 133.219 560.156 131.844C562.365 130.448 563.979 128.354 565 125.562C564.708 125.229 564.302 125 563.781 124.875C563.698 125 563.448 125.344 563.031 125.906C562.635 126.448 562.344 126.844 562.156 127.094C561.969 127.323 561.625 127.667 561.125 128.125C560.646 128.562 560.177 128.885 559.719 129.094C559.281 129.302 558.719 129.51 558.031 129.719C557.344 129.906 556.594 130 555.781 130C552.573 130 550.021 129.052 548.125 127.156C546.229 125.24 545.24 122.667 545.156 119.438C545.156 118.708 545.198 117.708 545.281 116.438ZM563.281 123.406C564.594 123.698 565.656 124.354 566.469 125.375C565.281 128.625 563.448 131.073 560.969 132.719C558.49 134.365 555.844 135.188 553.031 135.188C549.198 135.188 545.875 133.896 543.062 131.312C540.271 128.729 538.875 124.875 538.875 119.75C538.875 115.104 540.302 111.208 543.156 108.062C546.031 104.896 550.094 103.312 555.344 103.312C563.281 103.312 567.25 106.615 567.25 113.219C567.25 114.51 566.948 116.01 566.344 117.719H549.562V119.75C549.667 122.271 550.354 124.323 551.625 125.906C552.896 127.469 554.646 128.385 556.875 128.656C558.188 128.531 559.271 128.083 560.125 127.312C560.979 126.542 562.031 125.24 563.281 123.406ZM556.812 112.25C556.812 109.958 556.042 108.573 554.5 108.094C552.667 108.656 551.302 110.302 550.406 113.031H556.75C556.75 112.948 556.76 112.823 556.781 112.656C556.802 112.49 556.812 112.354 556.812 112.25ZM584.25 115.406C584.771 113.49 585.844 111.625 587.469 109.812C589.094 108 590.75 107.094 592.438 107.094C594.417 107.094 595.406 107.729 595.406 109C595.406 110.146 594.865 110.875 593.781 111.188C593.49 111.604 593.49 112.094 593.781 112.656C594.906 112.656 595.823 112.312 596.531 111.625C597.26 110.938 597.625 109.979 597.625 108.75C597.625 107.458 597.229 106.448 596.438 105.719C595.667 104.969 594.656 104.594 593.406 104.594C591.781 104.594 590.146 105.25 588.5 106.562C586.875 107.854 585.458 109.302 584.25 110.906V105.531C584.083 105.198 583.729 104.927 583.188 104.719C580.396 106.031 577.167 106.885 573.5 107.281C573.375 107.781 573.375 108.271 573.5 108.75C576.312 108.875 578.323 109.302 579.531 110.031C579.698 117.802 579.677 124.031 579.469 128.719C579.427 130.26 577.656 131.26 574.156 131.719C573.844 132.281 573.844 132.771 574.156 133.188C579.615 132.938 585.562 132.938 592 133.188C592.292 132.771 592.292 132.281 592 131.719C587.062 131.26 584.573 130.26 584.531 128.719C584.344 124.49 584.25 120.052 584.25 115.406ZM588.938 128.656C588.979 129.469 590.385 130.104 593.156 130.562C593.844 131.938 593.802 133.26 593.031 134.531C584.198 134.24 577.521 134.177 573 134.344C572.229 133.115 572.188 131.854 572.875 130.562C576.375 130.104 578.146 129.469 578.188 128.656C578.438 122.719 578.458 116.76 578.25 110.781C576.875 110.365 574.979 110.094 572.562 109.969C572.083 108.719 572.083 107.396 572.562 106C576.042 105.792 579.729 104.854 583.625 103.188C585.875 103.438 587.562 104.115 588.688 105.219C590.438 103.948 592.01 103.312 593.406 103.312C595.031 103.312 596.354 103.792 597.375 104.75C598.396 105.708 598.906 107.042 598.906 108.75C598.906 110.375 598.427 111.646 597.469 112.562C596.51 113.479 595.281 113.938 593.781 113.938C592.385 113.938 591.219 113.469 590.281 112.531C589.427 113.677 588.896 114.719 588.688 115.656C588.688 120.177 588.771 124.51 588.938 128.656Z" fill="black"/>
<path d="M429.456 187.64C426.64 187.64 424.165 187.107 422.032 186.04C419.941 184.973 418.32 183.437 417.168 181.432C416.016 179.384 415.44 176.973 415.44 174.2V164.6C415.44 161.784 416.016 159.373 417.168 157.368C418.32 155.363 419.941 153.827 422.032 152.76C424.165 151.693 426.64 151.16 429.456 151.16C433.509 151.16 436.773 152.248 439.248 154.424C441.723 156.6 443.024 159.565 443.152 163.32H437.392C437.264 161.059 436.496 159.331 435.088 158.136C433.723 156.899 431.845 156.28 429.456 156.28C426.939 156.28 424.933 157.005 423.44 158.456C421.947 159.864 421.2 161.891 421.2 164.536V174.2C421.2 176.845 421.947 178.893 423.44 180.344C424.933 181.795 426.939 182.52 429.456 182.52C431.845 182.52 433.723 181.901 435.088 180.664C436.496 179.427 437.264 177.699 437.392 175.48H443.152C443.024 179.235 441.723 182.2 439.248 184.376C436.773 186.552 433.509 187.64 429.456 187.64ZM464.503 187.64C460.791 187.64 457.868 186.701 455.735 184.824C453.602 182.904 452.535 180.323 452.535 177.08C452.535 173.795 453.602 171.213 455.735 169.336C457.868 167.459 460.748 166.52 464.375 166.52H475.255V163C475.255 160.824 474.594 159.16 473.271 158.008C471.991 156.813 470.156 156.216 467.767 156.216C465.676 156.216 463.927 156.664 462.519 157.56C461.111 158.413 460.3 159.587 460.087 161.08H454.327C454.711 158.051 456.14 155.64 458.615 153.848C461.09 152.056 464.183 151.16 467.895 151.16C471.948 151.16 475.148 152.205 477.495 154.296C479.842 156.387 481.015 159.224 481.015 162.808V187H475.383V180.28H474.423L475.383 179.32C475.383 181.88 474.38 183.907 472.375 185.4C470.412 186.893 467.788 187.64 464.503 187.64ZM465.911 183.096C468.642 183.096 470.882 182.413 472.631 181.048C474.38 179.683 475.255 177.933 475.255 175.8V170.808H464.503C462.583 170.808 461.068 171.341 459.959 172.408C458.85 173.475 458.295 174.925 458.295 176.76C458.295 178.723 458.956 180.28 460.279 181.432C461.644 182.541 463.522 183.096 465.911 183.096ZM490.974 187V151.8H496.03V156.024H497.182L496.286 157.56C496.286 155.597 496.798 154.04 497.822 152.888C498.889 151.736 500.318 151.16 502.11 151.16C504.073 151.16 505.587 151.885 506.654 153.336C507.721 154.787 508.254 156.835 508.254 159.48L506.526 156.024H509.214L507.998 157.56C507.998 155.597 508.531 154.04 509.598 152.888C510.707 151.736 512.158 151.16 513.95 151.16C516.169 151.16 517.875 151.992 519.07 153.656C520.307 155.32 520.926 157.517 520.926 160.248V187H515.614V160.184C515.614 158.733 515.294 157.603 514.654 156.792C514.057 155.981 513.161 155.576 511.966 155.576C510.814 155.576 509.897 155.981 509.214 156.792C508.574 157.56 508.254 158.669 508.254 160.12V187H503.646V160.184C503.646 158.691 503.305 157.56 502.622 156.792C501.982 155.981 501.065 155.576 499.87 155.576C498.675 155.576 497.779 155.981 497.182 156.792C496.585 157.56 496.286 158.669 496.286 160.12V187H490.974ZM544.261 187.64C540.208 187.64 536.965 186.445 534.533 184.056C532.101 181.624 530.885 178.339 530.885 174.2V151.8H536.645V174.2C536.645 176.845 537.328 178.915 538.693 180.408C540.058 181.859 541.914 182.584 544.261 182.584C546.65 182.584 548.528 181.859 549.893 180.408C551.301 178.915 552.005 176.845 552.005 174.2V151.8H557.765V174.2C557.765 178.339 556.528 181.624 554.053 184.056C551.578 186.445 548.314 187.64 544.261 187.64ZM581.612 187.512C579.223 187.512 577.132 187.149 575.34 186.424C573.591 185.656 572.183 184.589 571.116 183.224C570.092 181.859 569.473 180.237 569.26 178.36H575.02C575.276 179.597 575.959 180.579 577.068 181.304C578.22 182.029 579.735 182.392 581.612 182.392H584.3C586.561 182.392 588.247 181.944 589.356 181.048C590.465 180.109 591.02 178.872 591.02 177.336C591.02 175.843 590.508 174.669 589.484 173.816C588.503 172.92 587.031 172.323 585.068 172.024L580.332 171.256C576.876 170.659 574.295 169.592 572.588 168.056C570.924 166.477 570.092 164.195 570.092 161.208C570.092 158.051 571.095 155.619 573.1 153.912C575.105 152.163 578.113 151.288 582.124 151.288H584.556C587.927 151.288 590.636 152.077 592.684 153.656C594.732 155.235 595.969 157.368 596.396 160.056H590.636C590.38 158.947 589.74 158.072 588.716 157.432C587.692 156.749 586.305 156.408 584.556 156.408H582.124C579.948 156.408 578.348 156.813 577.324 157.624C576.343 158.435 575.852 159.651 575.852 161.272C575.852 162.723 576.279 163.789 577.132 164.472C577.985 165.155 579.329 165.645 581.164 165.944L585.9 166.712C589.697 167.309 592.449 168.419 594.156 170.04C595.905 171.661 596.78 174.008 596.78 177.08C596.78 180.323 595.735 182.883 593.644 184.76C591.596 186.595 588.481 187.512 584.3 187.512H581.612Z" fill="black"/>
<path d="M199.4 1.00977C198.492 1.88782 196.881 5.6927 191.52 19.6829C186.715 32.1805 183.756 39.0586 179.478 47.6049C177.076 52.3756 177.369 50.9707 175.084 67.8293C173.853 76.8147 167.232 127.683 166.939 130.405C166.764 131.956 166.764 131.985 165.914 131.81C165.475 131.722 163.541 131.429 161.637 131.195C155.719 130.405 156.422 130.873 154.957 126.659C154.254 124.639 151.178 115.888 148.131 107.195C142.828 92.0927 139.43 81.9073 138.258 77.7805C137.936 76.639 136.852 74.4147 135.533 72.2195C134.361 70.2 130.934 64.0244 127.945 58.4634C121.617 46.6098 117.955 40.3756 116.314 38.5903C115.67 37.8878 111.891 34.4342 107.906 30.922C103.922 27.4098 100.465 24.2195 100.23 23.8683C99.9668 23.5171 99.6738 23.3122 99.5859 23.4293C98.7656 24.2195 103.98 33.1464 109.605 40.6098C111.305 42.8927 112.184 44.4732 114.088 48.7464C120.27 62.6781 125.484 72.0439 131.402 79.8293C132.896 81.761 133.16 82.3756 133.805 84.9512C134.215 86.561 135.885 93.0878 137.496 99.439C140.543 111.263 144.879 129.322 144.879 130.054C144.879 130.376 144.41 130.463 143.033 130.463C140.689 130.463 135.182 131.195 132.779 131.81C131.783 132.044 129.85 132.776 128.502 133.42C127.154 134.034 125.953 134.561 125.865 134.561C125.777 134.561 125.514 134.005 125.309 133.302C124.635 131.137 123.199 129.322 119.859 126.366C116.285 123.234 115.172 121.976 109.635 115.215C106.061 110.824 105.855 110.62 104.654 110.473C101.285 110.005 93.6972 106.668 86.1972 102.337C83.9121 101.02 77.4961 97.1268 71.9297 93.7317C66.3633 90.3073 60.7676 86.9707 59.4785 86.2976L57.1347 85.0976L33.8437 83.1951C21.041 82.1415 10.1718 81.2342 9.70309 81.1464L8.82419 81L9.55661 81.761C10.4062 82.6683 12.2812 83.7805 13.4824 84.0732C13.9804 84.1903 15.7383 84.3951 17.4375 84.5122C21.7734 84.8634 28.7168 85.7415 39.2636 87.2634C44.2734 87.9951 50.1914 88.7854 52.4179 89.0488L56.4902 89.5171L59.3027 91.1561C65.8066 94.961 73.2773 100.2 84.6738 108.893C88.1894 111.585 90.7676 113.839 93.4043 116.59C97.7109 121.068 102.369 125.312 112.008 133.537C115.728 136.727 118.805 139.42 118.775 139.507C118.775 139.595 118.248 140.122 117.633 140.649C116.256 141.82 116.93 142.112 108.961 136.961C96.8906 129.146 90.7383 126.132 85.1133 125.224C81.1875 124.581 81.3633 124.522 76.0312 128.444C53.8242 144.863 38.707 153.79 20.0742 161.488C15.3281 163.449 6.33395 166.815 4.72263 167.224C4.25388 167.341 3.81442 167.722 3.63864 168.132C2.70114 170.59 1.2363 190.61 0.445281 211.537C0.0937189 221.283 0.0644221 236.795 0.415985 236.59C0.943328 236.268 2.81833 233.195 3.25778 231.966C3.93161 230.063 4.48825 225.381 4.69333 220.171C4.78122 217.595 5.24997 210.337 5.74802 204.073C6.24606 197.781 6.74411 190.171 6.832 187.098L7.03708 181.537L9.38083 180.541C24.1758 174.278 35.5429 167.517 56.6953 152.415C67.7988 144.483 74.5957 139.8 80.3379 136.141L85.084 133.127L87.8086 134.59C91.3535 136.522 94.9863 138.951 100.787 143.254C104.713 146.151 106.793 147.673 108.668 148.961C108.814 149.049 107.73 150.512 106.295 152.181C99.4394 159.995 94.4883 170.005 92.5547 179.927C92.2031 181.741 92.0859 183.878 92.1152 187.859C92.2031 205.683 96.3926 219.79 103.687 226.902C107.701 230.795 111.92 232.581 117.75 232.815C123.258 233.078 128.561 232.112 134.918 229.771C140.865 227.576 152.115 221.693 158.502 217.39C164.186 213.556 171.305 205.273 176.842 195.995L178.922 192.541L180.885 193.273C181.939 193.683 183.492 194.268 184.342 194.59L185.865 195.176L184.166 200.063C182.145 205.829 181.881 206.502 176.725 220.024C169.166 239.868 166.998 247.566 167.994 251.224C168.287 252.337 168.199 252.746 166.295 257.956C163.424 265.829 162.721 267.673 154.078 289.478C143.912 315.117 139.4 327.029 139.723 327.351C140.279 327.907 147.047 314.239 155.572 295.39C162.398 280.229 170.484 261.556 173.531 253.917C174.293 252.015 175.055 250.463 175.23 250.463C176.578 250.463 178.687 245.195 180.445 237.439C181.852 231.146 182.994 225.117 186.187 206.707C186.978 202.024 187.975 196.639 188.385 194.737C188.795 192.805 189.088 191.224 189.059 191.195C189 191.166 187.33 190.581 185.309 189.878C183.287 189.176 181.529 188.532 181.412 188.415C181.061 188.122 181.998 186.366 182.496 186.366C182.73 186.366 185.25 187.127 188.121 188.063C191.021 189 195.123 190.288 197.262 190.902L201.187 192.073L203.619 195.732C207.281 201.234 209.508 205.332 217.447 221.049C226.529 239.078 228.639 242.561 230.514 242.561C231.07 242.561 231.451 242.883 232.125 243.966C235.963 249.966 240.24 262.288 242.906 274.902C243.697 278.737 243.756 277.888 243.17 271.8C241.939 259.683 239.83 250.785 235.816 241.01C234.586 238.024 234.557 237.82 234.996 237.146C235.934 235.712 234.674 233.312 226.559 221.049C215.103 203.722 210.68 195.029 207.809 184.171L207.398 182.707L204.937 182.21C203.561 181.917 198.639 181.273 193.951 180.746C189.293 180.22 185.396 179.751 185.338 179.722C185.25 179.663 185.396 179.224 185.631 178.727C186.012 177.937 186.51 177.644 189.41 176.561C191.256 175.859 201.539 171.966 212.262 167.927C222.984 163.888 232.535 160.288 233.502 159.907L235.26 159.205L247.711 161.81C277.447 168.015 293.355 171.966 305.426 176.21C313.16 178.932 312.486 178.551 316.354 182.707C323.062 189.907 327.486 196.083 331.002 203.02C332.086 205.185 332.965 206.795 332.965 206.561C332.965 206.327 332.643 204.863 332.262 203.341C330.357 195.937 327.164 189.41 321.012 180.366C316.559 173.81 315.533 172.639 312.926 170.824L310.553 169.156L302.643 167.663C277.125 162.834 263.004 158.502 250.787 151.741L247.594 149.985L241.412 150.19L235.26 150.366L217.535 155.751C193.98 162.922 190.963 163.829 190.758 163.829C190.67 163.829 190.582 163.449 190.582 162.981C190.582 162.395 190.758 162.102 191.139 161.985C191.461 161.927 192.047 161.312 192.457 160.668C192.867 159.995 197.467 154.024 202.682 147.381C219.146 126.366 230.338 111.644 237.135 102.073C239.156 99.2634 240.885 96.8342 241.002 96.7171C241.119 96.5707 242.818 96.1317 244.811 95.7512C252.809 94.2 262.096 91.3317 270.445 87.8488C276.891 85.1854 284.42 81.4683 296.637 75C308.268 68.8537 318.551 63.7025 323.531 61.5951L326.842 60.1903L335.396 68.3561C353.766 85.8586 359.156 90.922 359.273 90.8049C359.771 90.3073 354.967 83.839 349.752 77.9268C342.926 70.1707 328.805 55.7415 327.633 55.3025C327.311 55.1561 321.129 57.7317 306.51 64.0537C271.061 79.4195 260.25 83.2244 237.75 88.3464C236.52 88.6098 236.344 88.7854 234.879 91.1268C229.049 100.346 215.484 117.849 203.648 131.341C199.107 136.551 189.029 147.439 188.766 147.439C188.648 147.439 188.18 146.737 187.77 145.888C185.514 141.41 181.119 137.107 177.135 135.439C176.314 135.117 176.227 134.971 176.344 134.151C176.432 133.654 176.578 132.249 176.666 131.049C176.754 129.849 177.486 120.688 178.277 110.707C179.098 100.727 180.27 85.9756 180.914 77.9268C181.559 69.8781 182.291 61.0098 182.555 58.2L182.994 53.1073L185.221 49.4195C190.582 40.639 194.537 31.2439 197.906 19.361C198.697 16.6098 199.43 13.8293 199.547 13.2147L199.752 12.0732L199.986 12.9512C200.103 13.4195 201.275 21 202.594 29.7805C203.883 38.561 205.025 46.0537 205.143 46.4634C205.699 48.7171 206.52 36.4537 206.314 28.9025C206.051 20.4147 205.172 12.8049 203.414 4.46343C202.564 0.278066 201.334 -0.775592 199.4 1.00977Z" fill="black"/>
</svg>
