<svg width="602" height="328" viewBox="0 0 602 328" fill="none" xmlns="http://www.w3.org/2000/svg">
<path d="M273.721 144.343V97.6234H279.481V104.343H280.633L279.481 105.687C279.481 102.999 280.356 100.887 282.105 99.3514C283.897 97.7727 286.244 96.9834 289.145 96.9834C292.687 96.9834 295.503 98.1567 297.593 100.503C299.727 102.807 300.793 105.986 300.793 110.039V120.343C300.793 123.031 300.303 125.357 299.321 127.319C298.383 129.282 297.039 130.797 295.289 131.863C293.583 132.93 291.535 133.463 289.145 133.463C286.287 133.463 283.961 132.674 282.169 131.095C280.377 129.517 279.481 127.405 279.481 124.759L280.633 126.103H279.353L279.481 134.103V144.343H273.721ZM287.225 128.471C289.657 128.471 291.556 127.746 292.921 126.295C294.329 124.845 295.033 122.754 295.033 120.023V110.423C295.033 107.693 294.329 105.602 292.921 104.151C291.556 102.701 289.657 101.975 287.225 101.975C284.879 101.975 283.001 102.722 281.593 104.215C280.185 105.709 279.481 107.778 279.481 110.423V120.023C279.481 122.669 280.185 124.738 281.593 126.231C283.001 127.725 284.879 128.471 287.225 128.471ZM317.6 144.343L322.784 130.647L309.728 97.6234H316.128L324.32 119.383C324.619 120.109 324.896 120.983 325.152 122.007C325.408 122.989 325.622 123.821 325.792 124.503C325.963 123.821 326.176 122.989 326.432 122.007C326.688 120.983 326.944 120.109 327.2 119.383L334.88 97.6234H341.088L323.744 144.343H317.6ZM365.458 89.5734C364.396 89.6151 363.771 89.8651 363.583 90.3234C363.396 90.7609 363.531 91.5526 363.99 92.6984L373.615 116.386L377.427 106.136L372.052 92.6359C371.594 91.5317 371.031 90.7713 370.365 90.3546C369.698 89.9171 368.646 89.6567 367.208 89.5734C366.688 88.2401 366.688 87.0005 367.208 85.8546H389.271C389.792 87.0005 389.792 88.2401 389.271 89.5734C387.021 89.6567 385.552 89.9692 384.865 90.5109C384.177 91.0317 384.011 91.7609 384.365 92.6984L393.302 116.198L402.083 92.6984C402.5 91.5526 402.354 90.7921 401.646 90.4171C400.958 90.0213 399.563 89.7401 397.458 89.5734C396.958 88.2401 396.958 87.0005 397.458 85.8546H416.021C416.542 87.0005 416.542 88.2401 416.021 89.5734C412.875 89.7817 410.854 90.0942 409.958 90.5109C409.021 90.9901 408.354 91.7192 407.958 92.6984L391.958 135.011H388.771L380.396 113.417L372.24 135.011H369.115L351.646 92.6984C351.229 91.6776 350.49 90.9588 349.427 90.5421C348.386 90.1046 346.823 89.7817 344.74 89.5734C344.219 88.2401 344.219 87.0005 344.74 85.8546H365.458C365.979 87.0005 365.979 88.2401 365.458 89.5734ZM364.396 86.8859H345.833C345.563 87.3026 345.563 87.7921 345.833 88.3546C349.583 88.7296 351.906 90.0109 352.802 92.1984L369.958 133.73H371.365L380.24 109.917L389.677 133.73H391.083L406.958 91.7921C407.417 90.6046 408.25 89.7817 409.458 89.3234C410.688 88.8442 412.427 88.5213 414.677 88.3546C414.948 87.7921 414.948 87.3026 414.677 86.8859H398.802C398.552 87.3026 398.552 87.7921 398.802 88.3546C401.281 88.6463 402.802 89.0317 403.365 89.5109C404.052 90.0526 404.198 90.813 403.802 91.7921L391.646 124.511L379.302 92.1984C378.823 91.0734 379.313 90.1984 380.771 89.5734C382.229 88.9276 384.615 88.5213 387.927 88.3546C388.198 87.7921 388.198 87.3026 387.927 86.8859H368.302C368.031 87.3026 368.031 87.7921 368.302 88.3546C369.615 88.4796 370.646 88.8234 371.396 89.3859C372.146 89.9276 372.771 90.8651 373.271 92.1984L378.771 106.136L371.927 124.511L358.802 92.1984C358.094 90.7817 358.167 89.8442 359.021 89.3859C359.875 88.9067 361.667 88.563 364.396 88.3546C364.646 87.7921 364.646 87.3026 364.396 86.8859ZM432.865 106.448C435.011 106.448 436.708 107.48 437.958 109.542C439.229 111.584 439.865 114.761 439.865 119.073C439.865 123.386 439.229 126.563 437.958 128.605C436.708 130.646 435.011 131.667 432.865 131.667C431.677 131.667 430.594 131.417 429.615 130.917C428.656 130.417 427.833 129.646 427.146 128.605C426.479 127.563 425.958 126.261 425.583 124.698C425.208 123.115 425.021 121.24 425.021 119.073C425.021 116.928 425.208 115.063 425.583 113.48C425.958 111.875 426.479 110.563 427.146 109.542C427.833 108.5 428.656 107.73 429.615 107.23C430.594 106.709 431.677 106.448 432.865 106.448ZM432.865 133.73C434.802 133.73 436.542 133.365 438.083 132.636C439.625 131.907 440.938 130.896 442.021 129.605C443.125 128.292 443.969 126.74 444.552 124.948C445.136 123.157 445.427 121.198 445.427 119.073C445.427 116.948 445.136 114.99 444.552 113.198C443.969 111.407 443.125 109.865 442.021 108.573C440.938 107.261 439.625 106.24 438.083 105.511C436.542 104.782 434.802 104.417 432.865 104.417C430.802 104.417 428.938 104.782 427.271 105.511C425.604 106.24 424.188 107.25 423.021 108.542C421.875 109.834 420.99 111.386 420.365 113.198C419.74 114.99 419.427 116.948 419.427 119.073C419.427 121.219 419.74 123.188 420.365 124.98C420.99 126.771 421.875 128.323 423.021 129.636C424.188 130.928 425.604 131.938 427.271 132.667C428.938 133.375 430.802 133.73 432.865 133.73ZM433.958 103.136C436.479 103.136 438.719 103.521 440.677 104.292C442.656 105.063 444.323 106.157 445.677 107.573C447.031 108.969 448.063 110.646 448.771 112.605C449.479 114.563 449.833 116.719 449.833 119.073C449.833 121.407 449.479 123.553 448.771 125.511C448.063 127.469 447.031 129.157 445.677 130.573C444.344 131.969 442.688 133.053 440.708 133.823C438.729 134.615 436.479 135.011 433.958 135.011C431.458 135.011 429.219 134.615 427.24 133.823C425.281 133.053 423.625 131.969 422.271 130.573C420.938 129.157 419.917 127.48 419.208 125.542C418.5 123.584 418.146 121.428 418.146 119.073C418.146 116.719 418.5 114.563 419.208 112.605C419.917 110.646 420.948 108.969 422.302 107.573C423.656 106.157 425.313 105.063 427.271 104.292C429.229 103.521 431.458 103.136 433.958 103.136ZM429.427 119.073C429.427 125.803 430.938 129.532 433.958 130.261C437.042 129.532 438.583 125.803 438.583 119.073C438.583 112.407 437.042 108.667 433.958 107.855C430.938 108.667 429.427 112.407 429.427 119.073ZM476.24 131.386C475.99 131.865 475.99 132.375 476.24 132.917C481.656 132.792 487.083 132.792 492.521 132.917C492.813 132.417 492.813 131.907 492.521 131.386C487.438 131.136 484.875 130.136 484.833 128.386L484.521 112.667C484.417 109.813 483.948 107.73 483.115 106.417C482.302 105.084 480.865 104.417 478.802 104.417C475.344 104.417 471.229 106.803 466.458 111.573V105.355C466.292 105.021 465.927 104.75 465.365 104.542C462.469 105.896 459.458 106.75 456.333 107.105C456.208 107.605 456.208 108.094 456.333 108.573C458.729 108.698 460.5 109.125 461.646 109.855C461.875 116.084 461.875 122.261 461.646 128.386C461.604 129.928 459.813 130.928 456.271 131.386C456.021 131.865 456.021 132.375 456.271 132.917C461.688 132.709 467.136 132.709 472.615 132.917C472.865 132.375 472.865 131.865 472.615 131.386C468.719 130.969 466.75 129.969 466.708 128.386C466.542 124.053 466.458 119.115 466.458 113.573C470.646 109.886 473.927 108.042 476.302 108.042C478.573 108.042 479.708 109.928 479.708 113.698L479.646 128.386C479.646 129.407 479.333 130.125 478.708 130.542C478.083 130.938 477.261 131.219 476.24 131.386ZM475.24 134.011C474.719 132.782 474.719 131.521 475.24 130.23C475.906 130.23 476.594 130.053 477.302 129.698C478.011 129.323 478.365 128.886 478.365 128.386L478.427 113.698C478.427 111.428 477.979 110.042 477.083 109.542C475.542 109.917 473.469 111.042 470.865 112.917C470.865 118.646 470.948 123.782 471.115 128.323C471.219 129.428 472.052 130.063 473.615 130.23C474.136 131.521 474.136 132.782 473.615 134.011C467.511 133.803 461.375 133.803 455.208 134.011C454.688 132.782 454.688 131.521 455.208 130.23C458.604 129.771 460.323 129.136 460.365 128.323C460.594 122.448 460.594 116.542 460.365 110.605C458.969 110.188 457.25 109.917 455.208 109.792C454.729 108.542 454.729 107.219 455.208 105.823C458.354 105.657 461.896 104.719 465.833 103.011C468.083 103.178 469.761 103.855 470.865 105.042V106.073C473.823 104.115 477.219 103.136 481.052 103.136C483.865 103.136 485.865 103.907 487.052 105.448C488.261 106.969 488.886 109.375 488.927 112.667C489.011 120.938 489.115 126.178 489.24 128.386C489.281 129.24 490.75 129.855 493.646 130.23C494.125 131.605 494.083 132.865 493.521 134.011C487.417 133.886 481.323 133.886 475.24 134.011ZM513.083 129.636C510.604 129.636 508.719 128.636 507.427 126.636C506.156 124.615 505.521 122.073 505.521 119.011C505.521 116.532 505.771 114.407 506.271 112.636C506.792 110.865 507.469 109.563 508.302 108.73C509.136 107.896 509.948 107.313 510.74 106.98C511.531 106.625 512.333 106.448 513.146 106.448C516.083 106.448 518.281 107.688 519.74 110.167V114.698C519.74 120.386 519.719 124.25 519.677 126.292C517.365 128.521 515.167 129.636 513.083 129.636ZM533.49 130.323C534.177 131.698 534.136 133.021 533.365 134.292C528.031 134.125 523.552 134.125 519.927 134.292C519.156 133.959 518.667 133.532 518.458 133.011C516.438 134.344 513.636 135.011 510.052 135.011C506.511 135.011 503.636 133.688 501.427 131.042C499.24 128.396 498.146 124.792 498.146 120.23C498.146 118.209 498.448 116.24 499.052 114.323C499.656 112.407 500.563 110.594 501.771 108.886C502.979 107.178 504.656 105.792 506.802 104.73C508.969 103.667 511.438 103.136 514.208 103.136C516.104 103.136 517.521 103.178 518.458 103.261C518.417 99.9692 518.396 96.0213 518.396 91.4171C517.021 90.9796 515.115 90.6984 512.677 90.5734C512.219 89.3442 512.219 88.0213 512.677 86.6046C515.594 86.3546 519.292 85.4171 523.771 83.7921C526.021 83.9588 527.698 84.6463 528.802 85.8546C528.802 109.625 528.896 123.834 529.083 128.48C529.125 129.375 530.594 129.99 533.49 130.323ZM518.458 110.48C517.417 109 516.052 108.125 514.365 107.855C512.906 108.167 511.656 109.178 510.615 110.886C509.573 112.573 509.052 115.282 509.052 119.011C509.052 121.428 509.469 123.48 510.302 125.167C511.156 126.855 512.438 127.875 514.146 128.23C515.521 127.917 516.938 127.105 518.396 125.792C518.438 123.73 518.458 120.032 518.458 114.698V110.48ZM532.333 131.48C531.271 131.396 530.458 131.313 529.896 131.23C529.354 131.146 528.583 131 527.583 130.792C526.604 130.563 525.865 130.271 525.365 129.917C524.886 129.542 524.646 129.084 524.646 128.542C524.479 123.896 524.396 109.771 524.396 86.1671C524.188 85.7921 523.823 85.5109 523.302 85.3234C520.531 86.6567 517.313 87.5109 513.646 87.8859C513.521 88.4067 513.521 88.8963 513.646 89.3546C516.458 89.5005 518.469 89.9276 519.677 90.6359C519.677 96.5317 519.698 101.459 519.74 105.417C517.594 104.75 515.75 104.417 514.208 104.417C511.75 104.417 509.573 104.907 507.677 105.886C505.802 106.865 504.333 108.157 503.271 109.761C502.208 111.344 501.406 113.021 500.865 114.792C500.344 116.563 500.083 118.375 500.083 120.23C500.083 124.396 501.011 127.688 502.865 130.105C504.719 132.521 506.948 133.73 509.552 133.73C512.844 133.73 516.188 132.042 519.583 128.667C519.583 130.417 519.542 131.542 519.458 132.042C519.688 132.521 519.948 132.844 520.24 133.011C520.927 132.969 521.604 132.928 522.271 132.886C522.958 132.844 523.5 132.813 523.896 132.792C524.313 132.771 524.677 132.761 524.99 132.761C526.136 132.761 528.583 132.823 532.333 132.948C532.625 132.532 532.625 132.042 532.333 131.48ZM553.177 106.448C554.844 106.448 556.052 106.99 556.802 108.073C557.552 109.136 557.927 110.469 557.927 112.073C557.927 112.678 557.823 113.365 557.615 114.136H545.427C546.073 111.532 547.115 109.605 548.552 108.355C550.011 107.084 551.552 106.448 553.177 106.448ZM545.115 116.261H562.146C562.479 115.219 562.646 114.146 562.646 113.042C562.646 110.605 561.948 108.563 560.552 106.917C559.177 105.25 556.979 104.417 553.958 104.417C550.021 104.417 546.708 105.844 544.021 108.698C541.333 111.553 539.99 115.178 539.99 119.573C539.99 124.261 541.271 127.792 543.833 130.167C546.396 132.542 549.406 133.73 552.865 133.73C555.427 133.73 557.802 133.042 559.99 131.667C562.198 130.271 563.813 128.178 564.833 125.386C564.542 125.053 564.136 124.823 563.615 124.698C563.531 124.823 563.281 125.167 562.865 125.73C562.469 126.271 562.177 126.667 561.99 126.917C561.802 127.146 561.458 127.49 560.958 127.948C560.479 128.386 560.011 128.709 559.552 128.917C559.115 129.125 558.552 129.334 557.865 129.542C557.177 129.73 556.427 129.823 555.615 129.823C552.406 129.823 549.854 128.875 547.958 126.98C546.063 125.063 545.073 122.49 544.99 119.261C544.99 118.532 545.031 117.532 545.115 116.261ZM563.115 123.23C564.427 123.521 565.49 124.178 566.302 125.198C565.115 128.448 563.281 130.896 560.802 132.542C558.323 134.188 555.677 135.011 552.865 135.011C549.031 135.011 545.708 133.719 542.896 131.136C540.104 128.553 538.708 124.698 538.708 119.573C538.708 114.928 540.136 111.032 542.99 107.886C545.865 104.719 549.927 103.136 555.177 103.136C563.115 103.136 567.083 106.438 567.083 113.042C567.083 114.334 566.781 115.834 566.177 117.542H549.396V119.573C549.5 122.094 550.188 124.146 551.458 125.73C552.729 127.292 554.479 128.209 556.708 128.48C558.021 128.355 559.104 127.907 559.958 127.136C560.813 126.365 561.865 125.063 563.115 123.23ZM556.646 112.073C556.646 109.782 555.875 108.396 554.333 107.917C552.5 108.48 551.136 110.125 550.24 112.855H556.583C556.583 112.771 556.594 112.646 556.615 112.48C556.636 112.313 556.646 112.178 556.646 112.073ZM584.083 115.23C584.604 113.313 585.677 111.448 587.302 109.636C588.927 107.823 590.583 106.917 592.271 106.917C594.25 106.917 595.24 107.553 595.24 108.823C595.24 109.969 594.698 110.698 593.615 111.011C593.323 111.428 593.323 111.917 593.615 112.48C594.74 112.48 595.656 112.136 596.365 111.448C597.094 110.761 597.458 109.803 597.458 108.573C597.458 107.282 597.063 106.271 596.271 105.542C595.5 104.792 594.49 104.417 593.24 104.417C591.615 104.417 589.979 105.073 588.333 106.386C586.708 107.678 585.292 109.125 584.083 110.73V105.355C583.917 105.021 583.563 104.75 583.021 104.542C580.229 105.855 577 106.709 573.333 107.105C573.208 107.605 573.208 108.094 573.333 108.573C576.146 108.698 578.156 109.125 579.365 109.855C579.531 117.625 579.511 123.855 579.302 128.542C579.261 130.084 577.49 131.084 573.99 131.542C573.677 132.105 573.677 132.594 573.99 133.011C579.448 132.761 585.396 132.761 591.833 133.011C592.125 132.594 592.125 132.105 591.833 131.542C586.896 131.084 584.406 130.084 584.365 128.542C584.177 124.313 584.083 119.875 584.083 115.23ZM588.771 128.48C588.813 129.292 590.219 129.928 592.99 130.386C593.677 131.761 593.636 133.084 592.865 134.355C584.031 134.063 577.354 134 572.833 134.167C572.063 132.938 572.021 131.678 572.708 130.386C576.208 129.928 577.979 129.292 578.021 128.48C578.271 122.542 578.292 116.584 578.083 110.605C576.708 110.188 574.813 109.917 572.396 109.792C571.917 108.542 571.917 107.219 572.396 105.823C575.875 105.615 579.563 104.678 583.458 103.011C585.708 103.261 587.396 103.938 588.521 105.042C590.271 103.771 591.844 103.136 593.24 103.136C594.865 103.136 596.188 103.615 597.208 104.573C598.229 105.532 598.74 106.865 598.74 108.573C598.74 110.198 598.261 111.469 597.302 112.386C596.344 113.303 595.115 113.761 593.615 113.761C592.219 113.761 591.052 113.292 590.115 112.355C589.261 113.5 588.729 114.542 588.521 115.48C588.521 120 588.604 124.334 588.771 128.48Z" fill="white"/>
<path d="M429.289 187.463C426.473 187.463 423.999 186.93 421.865 185.863C419.775 184.797 418.153 183.261 417.001 181.255C415.849 179.207 415.273 176.797 415.273 174.023V164.423C415.273 161.607 415.849 159.197 417.001 157.191C418.153 155.186 419.775 153.65 421.865 152.583C423.999 151.517 426.473 150.983 429.289 150.983C433.343 150.983 436.607 152.071 439.081 154.247C441.556 156.423 442.857 159.389 442.985 163.143H437.225C437.097 160.882 436.329 159.154 434.921 157.959C433.556 156.722 431.679 156.103 429.289 156.103C426.772 156.103 424.767 156.829 423.273 158.279C421.78 159.687 421.033 161.714 421.033 164.359V174.023C421.033 176.669 421.78 178.717 423.273 180.167C424.767 181.618 426.772 182.343 429.289 182.343C431.679 182.343 433.556 181.725 434.921 180.487C436.329 179.25 437.097 177.522 437.225 175.303H442.985C442.857 179.058 441.556 182.023 439.081 184.199C436.607 186.375 433.343 187.463 429.289 187.463ZM464.336 187.463C460.624 187.463 457.702 186.525 455.568 184.647C453.435 182.727 452.368 180.146 452.368 176.903C452.368 173.618 453.435 171.037 455.568 169.159C457.702 167.282 460.582 166.343 464.208 166.343H475.088V162.823C475.088 160.647 474.427 158.983 473.104 157.831C471.824 156.637 469.99 156.039 467.6 156.039C465.51 156.039 463.76 156.487 462.352 157.383C460.944 158.237 460.134 159.41 459.92 160.903H454.16C454.544 157.874 455.974 155.463 458.448 153.671C460.923 151.879 464.016 150.983 467.728 150.983C471.782 150.983 474.982 152.029 477.328 154.119C479.675 156.21 480.848 159.047 480.848 162.631V186.823H475.216V180.103H474.256L475.216 179.143C475.216 181.703 474.214 183.73 472.208 185.223C470.246 186.717 467.622 187.463 464.336 187.463ZM465.744 182.919C468.475 182.919 470.715 182.237 472.464 180.871C474.214 179.506 475.088 177.757 475.088 175.623V170.631H464.336C462.416 170.631 460.902 171.165 459.792 172.231C458.683 173.298 458.128 174.749 458.128 176.583C458.128 178.546 458.79 180.103 460.112 181.255C461.478 182.365 463.355 182.919 465.744 182.919ZM490.807 186.823V151.623H495.863V155.847H497.015L496.119 157.383C496.119 155.421 496.631 153.863 497.655 152.711C498.722 151.559 500.151 150.983 501.943 150.983C503.906 150.983 505.421 151.709 506.487 153.159C507.554 154.61 508.087 156.658 508.087 159.303L506.359 155.847H509.047L507.831 157.383C507.831 155.421 508.365 153.863 509.431 152.711C510.541 151.559 511.991 150.983 513.783 150.983C516.002 150.983 517.709 151.815 518.903 153.479C520.141 155.143 520.759 157.341 520.759 160.071V186.823H515.447V160.007C515.447 158.557 515.127 157.426 514.487 156.615C513.89 155.805 512.994 155.399 511.799 155.399C510.647 155.399 509.73 155.805 509.047 156.615C508.407 157.383 508.087 158.493 508.087 159.943V186.823H503.479V160.007C503.479 158.514 503.138 157.383 502.455 156.615C501.815 155.805 500.898 155.399 499.703 155.399C498.509 155.399 497.613 155.805 497.015 156.615C496.418 157.383 496.119 158.493 496.119 159.943V186.823H490.807ZM544.094 187.463C540.041 187.463 536.798 186.269 534.366 183.879C531.934 181.447 530.718 178.162 530.718 174.023V151.623H536.478V174.023C536.478 176.669 537.161 178.738 538.526 180.231C539.892 181.682 541.748 182.407 544.094 182.407C546.484 182.407 548.361 181.682 549.726 180.231C551.134 178.738 551.838 176.669 551.838 174.023V151.623H557.598V174.023C557.598 178.162 556.361 181.447 553.886 183.879C551.412 186.269 548.148 187.463 544.094 187.463ZM581.445 187.335C579.056 187.335 576.965 186.973 575.173 186.247C573.424 185.479 572.016 184.413 570.949 183.047C569.925 181.682 569.307 180.061 569.093 178.183H574.853C575.109 179.421 575.792 180.402 576.901 181.127C578.053 181.853 579.568 182.215 581.445 182.215H584.133C586.395 182.215 588.08 181.767 589.189 180.871C590.299 179.933 590.853 178.695 590.853 177.159C590.853 175.666 590.341 174.493 589.317 173.639C588.336 172.743 586.864 172.146 584.901 171.847L580.165 171.079C576.709 170.482 574.128 169.415 572.421 167.879C570.757 166.301 569.925 164.018 569.925 161.031C569.925 157.874 570.928 155.442 572.933 153.735C574.939 151.986 577.947 151.111 581.957 151.111H584.389C587.76 151.111 590.469 151.901 592.517 153.479C594.565 155.058 595.803 157.191 596.229 159.879H590.469C590.213 158.77 589.573 157.895 588.549 157.255C587.525 156.573 586.139 156.231 584.389 156.231H581.957C579.781 156.231 578.181 156.637 577.157 157.447C576.176 158.258 575.685 159.474 575.685 161.095C575.685 162.546 576.112 163.613 576.965 164.295C577.819 164.978 579.163 165.469 580.997 165.767L585.733 166.535C589.531 167.133 592.283 168.242 593.989 169.863C595.739 171.485 596.613 173.831 596.613 176.903C596.613 180.146 595.568 182.706 593.477 184.583C591.429 186.418 588.315 187.335 584.133 187.335H581.445Z" fill="white"/>
<path d="M199.234 0.833168C198.326 1.71122 196.714 5.51609 191.353 19.5063C186.548 32.0039 183.589 38.8819 179.312 47.4283C176.91 52.199 177.203 50.7941 174.917 67.6527C173.687 76.638 167.066 127.506 166.773 130.228C166.597 131.78 166.597 131.809 165.748 131.633C165.308 131.545 163.374 131.253 161.47 131.019C155.552 130.228 156.255 130.697 154.791 126.482C154.087 124.462 151.011 115.711 147.964 107.019C142.662 91.9161 139.263 81.7307 138.091 77.6039C137.769 76.4624 136.685 74.238 135.367 72.0429C134.195 70.0234 130.767 63.8478 127.779 58.2868C121.451 46.4332 117.789 40.199 116.148 38.4137C115.503 37.7112 111.724 34.2576 107.74 30.7454C103.755 27.2332 100.298 24.0429 100.064 23.6917C99.8003 23.3405 99.5073 23.1356 99.4194 23.2527C98.5991 24.0429 103.814 32.9698 109.439 40.4332C111.138 42.7161 112.017 44.2966 113.921 48.5698C120.103 62.5015 125.318 71.8673 131.236 79.6527C132.73 81.5844 132.994 82.199 133.638 84.7746C134.048 86.3844 135.718 92.9112 137.33 99.2624C140.376 111.087 144.712 129.145 144.712 129.877C144.712 130.199 144.244 130.287 142.867 130.287C140.523 130.287 135.015 131.019 132.613 131.633C131.617 131.867 129.683 132.599 128.335 133.243C126.988 133.858 125.787 134.384 125.699 134.384C125.611 134.384 125.347 133.828 125.142 133.126C124.468 130.96 123.033 129.145 119.693 126.189C116.119 123.058 115.005 121.799 109.468 115.038C105.894 110.648 105.689 110.443 104.488 110.297C101.119 109.828 93.5307 106.492 86.0307 102.16C83.7456 100.843 77.3296 96.9502 71.7632 93.5551C66.1968 90.1307 60.601 86.7941 59.312 86.121L56.9682 84.921L33.6772 83.0185C20.8745 81.9649 10.0053 81.0576 9.53659 80.9698L8.65768 80.8234L9.39011 81.5844C10.2397 82.4917 12.1147 83.6039 13.3159 83.8966C13.8139 84.0137 15.5717 84.2185 17.271 84.3356C21.6069 84.6868 28.5503 85.5649 39.0971 87.0868C44.1069 87.8185 50.0249 88.6088 52.2514 88.8722L56.3237 89.3405L59.1362 90.9795C65.6401 94.7844 73.1108 100.023 84.5073 108.716C88.0229 111.409 90.601 113.662 93.2378 116.414C97.5444 120.892 102.203 125.136 111.841 133.36C115.562 136.55 118.638 139.243 118.609 139.331C118.609 139.419 118.082 139.945 117.466 140.472C116.089 141.643 116.763 141.936 108.794 136.784C96.7241 128.97 90.5718 125.955 84.9468 125.048C81.021 124.404 81.1968 124.345 75.8647 128.267C53.6577 144.687 38.5405 153.614 19.9077 161.311C15.1616 163.272 6.16745 166.638 4.55612 167.048C4.08737 167.165 3.64792 167.545 3.47214 167.955C2.53464 170.414 1.06979 190.433 0.278778 211.36C-0.072785 221.106 -0.102082 236.619 0.249481 236.414C0.776824 236.092 2.65182 233.019 3.09128 231.789C3.76511 229.887 4.32175 225.204 4.52682 219.994C4.61472 217.419 5.08347 210.16 5.58151 203.897C6.07956 197.604 6.57761 189.994 6.6655 186.921L6.87057 181.36L9.21432 180.365C24.0092 174.101 35.3764 167.34 56.5288 152.238C67.6323 144.306 74.4292 139.623 80.1714 135.965L84.9175 132.95L87.6421 134.414C91.187 136.345 94.8198 138.775 100.621 143.077C104.546 145.975 106.626 147.497 108.501 148.784C108.648 148.872 107.564 150.336 106.128 152.004C99.2729 159.819 94.3218 169.828 92.3882 179.75C92.0366 181.565 91.9194 183.701 91.9487 187.682C92.0366 205.506 96.226 219.614 103.521 226.726C107.535 230.619 111.753 232.404 117.583 232.638C123.091 232.901 128.394 231.936 134.751 229.594C140.699 227.399 151.949 221.516 158.335 217.214C164.019 213.38 171.138 205.097 176.675 195.819L178.755 192.365L180.718 193.097C181.773 193.506 183.326 194.092 184.175 194.414L185.699 194.999L183.999 199.887C181.978 205.653 181.714 206.326 176.558 219.848C168.999 239.692 166.832 247.389 167.828 251.048C168.121 252.16 168.033 252.57 166.128 257.78C163.257 265.653 162.554 267.497 153.912 289.301C143.746 314.94 139.234 326.853 139.556 327.175C140.113 327.731 146.88 314.062 155.406 295.214C162.232 280.053 170.318 261.38 173.365 253.74C174.126 251.838 174.888 250.287 175.064 250.287C176.412 250.287 178.521 245.019 180.279 237.262C181.685 230.97 182.828 224.94 186.021 206.531C186.812 201.848 187.808 196.462 188.218 194.56C188.628 192.628 188.921 191.048 188.892 191.019C188.833 190.989 187.164 190.404 185.142 189.701C183.121 188.999 181.363 188.355 181.246 188.238C180.894 187.945 181.832 186.189 182.33 186.189C182.564 186.189 185.083 186.95 187.955 187.887C190.855 188.823 194.957 190.111 197.095 190.726L201.021 191.897L203.453 195.555C207.115 201.058 209.341 205.155 217.281 220.872C226.363 238.901 228.472 242.384 230.347 242.384C230.904 242.384 231.285 242.706 231.958 243.789C235.796 249.789 240.074 262.111 242.74 274.726C243.531 278.56 243.589 277.711 243.003 271.623C241.773 259.506 239.664 250.609 235.65 240.833C234.419 237.848 234.39 237.643 234.83 236.97C235.767 235.536 234.507 233.136 226.392 220.872C214.937 203.545 210.513 194.853 207.642 183.994L207.232 182.531L204.771 182.033C203.394 181.74 198.472 181.097 193.785 180.57C189.126 180.043 185.23 179.575 185.171 179.545C185.083 179.487 185.23 179.048 185.464 178.55C185.845 177.76 186.343 177.467 189.244 176.384C191.089 175.682 201.373 171.789 212.095 167.75C222.818 163.711 232.369 160.111 233.335 159.731L235.093 159.028L247.544 161.633C277.281 167.838 293.189 171.789 305.259 176.033C312.994 178.755 312.32 178.375 316.187 182.531C322.896 189.731 327.32 195.906 330.835 202.843C331.919 205.009 332.798 206.619 332.798 206.384C332.798 206.15 332.476 204.687 332.095 203.165C330.191 195.76 326.998 189.233 320.845 180.189C316.392 173.633 315.367 172.462 312.759 170.648L310.386 168.98L302.476 167.487C276.958 162.658 262.837 158.326 250.621 151.565L247.427 149.809L241.246 150.014L235.093 150.189L217.369 155.575C193.814 162.745 190.796 163.653 190.591 163.653C190.503 163.653 190.416 163.272 190.416 162.804C190.416 162.219 190.591 161.926 190.972 161.809C191.294 161.75 191.88 161.136 192.291 160.492C192.701 159.819 197.3 153.848 202.515 147.204C218.98 126.189 230.171 111.467 236.968 101.897C238.99 99.0868 240.718 96.6576 240.835 96.5405C240.953 96.3941 242.652 95.9551 244.644 95.5746C252.642 94.0234 261.929 91.1551 270.279 87.6722C276.724 85.0088 284.253 81.2917 296.47 74.8234C308.101 68.6771 318.384 63.5259 323.365 61.4185L326.675 60.0137L335.23 68.1795C353.599 85.6819 358.99 90.7454 359.107 90.6283C359.605 90.1307 354.8 83.6624 349.585 77.7502C342.759 69.9941 328.638 55.5649 327.466 55.1259C327.144 54.9795 320.962 57.5551 306.343 63.8771C270.894 79.2429 260.083 83.0478 237.583 88.1698C236.353 88.4332 236.177 88.6088 234.712 90.9502C228.882 100.17 215.318 117.672 203.482 131.165C198.941 136.375 188.863 147.262 188.599 147.262C188.482 147.262 188.013 146.56 187.603 145.711C185.347 141.233 180.953 136.931 176.968 135.262C176.148 134.94 176.06 134.794 176.177 133.975C176.265 133.477 176.412 132.072 176.499 130.872C176.587 129.672 177.32 120.511 178.111 110.531C178.931 100.55 180.103 85.799 180.748 77.7502C181.392 69.7015 182.124 60.8332 182.388 58.0234L182.828 52.9307L185.054 49.2429C190.416 40.4624 194.371 31.0673 197.74 19.1844C198.531 16.4332 199.263 13.6527 199.38 13.038L199.585 11.8966L199.82 12.7746C199.937 13.2429 201.109 20.8234 202.427 29.6039C203.716 38.3844 204.859 45.8771 204.976 46.2868C205.533 48.5405 206.353 36.2771 206.148 28.7259C205.884 20.238 205.005 12.6283 203.248 4.28683C202.398 0.101461 201.167 -0.952198 199.234 0.833168Z" fill="white"/>
</svg>
